<svg xmlns="http://www.w3.org/2000/svg" width="1000" height="340" viewBox="0 0 1000 340" role="img" aria-label="Santiago Monzon — Web Developer. Football × Code."><title>Santiago Monzon — Web Developer. Football × Code.</title><style>text{font-family:Arial,Helvetica,sans-serif}.mono{font-family:Consolas,monospace}.muted{fill:#9BAEA2}.green{fill:#7CFF6B}@media(prefers-reduced-motion:reduce){.moving{display:none}}</style><rect x="1" y="1" width="998" height="338" rx="20" fill="#0B1210" stroke="#233B2B"/><rect x="38" y="38" width="5" height="215" fill="#7CFF6B"/><text x="60" y="49" font-size="14" fill="#7CFF6B" class="mono">SM / DEVELOPER CLUB</text><text x="57" y="125" font-size="67" fill="#F3F7F4" >SANTIAGO</text><text x="57" y="209" font-size="80" fill="#F3F7F4" >MONZON</text><text x="62" y="253" font-size="14" fill="#9BAEA2" class="mono">FOOTBALL  /  CODE  /  DIGITAL EXPERIENCES</text><path d="M60 274H580" stroke="#233B2B"/><text x="62" y="310" font-size="15" fill="#F3F7F4" class="mono">WEB DEVELOPER</text><text x="305" y="310" font-size="15" fill="#9BAEA2" class="mono">ARGENTINA</text><g fill="none" stroke="#335E40" stroke-width="2"><rect x="649" y="57" width="294" height="192" fill="#10251A"/><path d="M796.0 57v192"/><circle cx="796.0" cy="153.0" r="32.64"/><path d="M649 101.16h49.980000000000004v103.68h-49.980000000000004 M943 101.16h-49.980000000000004v103.68h49.980000000000004"/></g><circle cx="704" cy="123" r="6" fill="#7CFF6B"/><circle cx="750" cy="196" r="6" fill="#7CFF6B"/><circle cx="821" cy="100" r="6" fill="#7CFF6B"/><circle cx="878" cy="180" r="6" fill="#7CFF6B"/><g class="moving"><circle r="9" fill="#F3F7F4" stroke="#7CFF6B"/><path d="M0-4 4-1 2 4-2 4-4-1Z" fill="#0B1210"/><animateMotion dur="7s" repeatCount="indefinite" path="M690 170 C710 180 730 210 750 196 S800 80 821 100 S940 135 912 153 S720 140 690 170Z"/></g><text x="649" y="287" font-size="13" fill="#7CFF6B" class="mono">HOME GROUND / ONLINE</text><circle cx="559" cy="301" r="6" fill="#7CFF6B"/><path d="M649 311H943" stroke="#233B2B" stroke-width="3"/></svg>